<?xml version="1.0" encoding="UTF-8"?>
<svg id="Layer_1" xmlns="http://www.w3.org/2000/svg" version="1.1" viewBox="0 0 40 40">
  <defs><style>.st0{fill:#68bd45}</style></defs>
  <path class="st0" d="M21.8,39.47c-.46.59-1.24.7-1.8.25l-9.8-10.84-8.79-.02c-.82-.1-1.37-.86-1.42-1.91v-14.07c.06-1.08.57-1.79,1.41-1.91h8.93S19.8.47,19.8.47c.87-.99,2.26-.34,2.41,1.13v36.74c-.03.38-.2.85-.41,1.12"/>
  <path class="st0" d="M33.35.21c1.15-.21,1.64.99,2.21,2.02,5.88,10.62,5.93,24.88.09,35.55-.34.61-.92,1.78-1.47,2.01-1.03.43-2.08-.6-1.94-1.99.08-.74.94-1.95,1.29-2.63,4.85-9.28,4.74-21.41-.21-30.58-.29-.54-.99-1.51-1.1-2.09-.18-1.01.31-2.15,1.12-2.3"/>
  <path class="st0" d="M29.57,5.04c1.31-.24,2.06,1.75,2.62,3.01,3.5,7.81,3.34,17.51-.48,25.08-.29.58-.69,1.48-1.18,1.76-1.03.59-2.16-.43-2.06-1.87.05-.73.8-1.84,1.11-2.52,3.12-6.68,2.92-14.86-.28-21.41-.46-.94-1.15-1.64-.81-2.88.15-.54.63-1.09,1.08-1.17"/>
  <path class="st0" d="M25.5,10.27c1.27-.24,1.74,1.19,2.21,2.42,1.72,4.51,1.8,9.74.18,14.32-.23.64-.74,2.01-1.14,2.42-.63.64-1.57.5-2.06-.31-.78-1.28.11-2.39.53-3.55,1.24-3.45,1.25-7.39.04-10.86-.23-.66-.87-1.81-.92-2.44-.06-.9.44-1.88,1.16-2.01"/>
</svg>
