<?xml version="1.0" encoding="UTF-8"?>
<svg id="Layer_1" xmlns="http://www.w3.org/2000/svg" version="1.1" viewBox="0 0 16 16">
  <defs><style>.st0{fill:#fff}</style></defs>
  <path class="st0" d="M8,0C3.58,0,0,3.58,0,8s3.58,8,8,8,8-3.58,8-8S12.42,0,8,0M11.67,11.54c-.14.23-.45.31-.69.16-1.88-1.15-4.24-1.41-7.03-.77-.27.06-.54-.11-.6-.38s.11-.54.38-.6h0c3.05-.7,5.66-.4,7.77.89.23.14.31.45.17.69M12.65,9.36c-.18.29-.56.39-.86.2-2.15-1.32-5.43-1.7-7.97-.93-.34.08-.67-.13-.75-.46-.07-.31.09-.62.39-.73,2.91-.88,6.52-.45,8.99,1.06.29.18.39.56.21.86M12.73,7.09c-2.58-1.53-6.83-1.67-9.29-.93-.4.12-.81-.1-.93-.5s.1-.81.5-.93h0c2.83-.86,7.52-.69,10.49,1.07.36.21.47.67.26,1.03s-.67.47-1.03.26"/>
</svg>
